<?xml version="1.0" encoding="UTF-8"?>
<!DOCTYPE svg PUBLIC "-//W3C//DTD SVG 1.1//EN" "http://www.w3.org/Graphics/SVG/1.1/DTD/svg11.dtd">
<svg xmlns="http://www.w3.org/2000/svg" version="1.1" width="1300px" height="761px" style="shape-rendering:geometricPrecision; text-rendering:geometricPrecision; image-rendering:optimizeQuality; fill-rule:evenodd; clip-rule:evenodd" xmlns:xlink="http://www.w3.org/1999/xlink">
<g><path style="opacity:1" fill="#0e0e0e" d="M 655.5,285.5 C 654.624,285.369 653.957,285.702 653.5,286.5C 654.246,287.736 654.579,289.07 654.5,290.5C 654.5,292.5 654.5,294.5 654.5,296.5C 652.058,296.881 651.391,296.214 652.5,294.5C 652.192,293.692 651.692,293.025 651,292.5C 649.67,293.582 648.17,294.249 646.5,294.5C 644.833,294.5 643.167,294.5 641.5,294.5C 641.5,291.167 641.5,287.833 641.5,284.5C 641.42,276.233 643.92,268.566 649,261.5C 661.333,250.5 673.667,239.5 686,228.5C 704.99,204.157 703.823,180.824 682.5,158.5C 682.027,157.094 681.027,156.427 679.5,156.5C 661.168,143.333 642.168,142.167 622.5,153C 608.809,162.513 595.476,172.513 582.5,183C 581.101,183.595 579.768,183.428 578.5,182.5C 577.143,180.814 575.81,179.148 574.5,177.5C 574.33,176.178 574.663,175.011 575.5,174C 574.244,173.583 573.577,172.75 573.5,171.5C 587.765,160.687 602.098,149.854 616.5,139C 640.545,126.78 663.878,128.114 686.5,143C 712.988,164.786 719.822,191.619 707,223.5C 704.247,228.008 701.247,232.341 698,236.5C 686.633,247.535 674.966,258.202 663,268.5C 658.472,273.245 655.972,278.912 655.5,285.5 Z"/></g>
<g><path style="opacity:1" fill="#5d5d5d" d="M 679.5,156.5 C 681.027,156.427 682.027,157.094 682.5,158.5C 680.973,158.573 679.973,157.906 679.5,156.5 Z"/></g>
<g><path style="opacity:1" fill="#424242" d="M 573.5,171.5 C 573.577,172.75 574.244,173.583 575.5,174C 574.663,175.011 574.33,176.178 574.5,177.5C 572.539,175.68 572.206,173.68 573.5,171.5 Z"/></g>
<g><path style="opacity:1" fill="#6d6d6d" d="M 655.5,285.5 C 655.784,287.415 655.451,289.081 654.5,290.5C 654.579,289.07 654.246,287.736 653.5,286.5C 653.957,285.702 654.624,285.369 655.5,285.5 Z"/></g>
<g><path style="opacity:1" fill="#272727" d="M 641.5,284.5 C 641.5,287.833 641.5,291.167 641.5,294.5C 643.167,294.5 644.833,294.5 646.5,294.5C 644.882,296.785 642.882,298.785 640.5,300.5C 640.179,294.974 640.512,289.64 641.5,284.5 Z"/></g>
<g><path style="opacity:1" fill="#3b3b3b" d="M 607.5,333.5 C 607.238,335.564 606.071,336.897 604,337.5C 602.644,336.62 601.144,336.286 599.5,336.5C 601.936,335.129 604.603,334.129 607.5,333.5 Z"/></g>
<g><path style="opacity:1" fill="#0e0e0e" d="M 654.5,296.5 C 652.393,312.405 658.726,323.238 673.5,329C 681.234,331.743 688.9,334.577 696.5,337.5C 697.833,339.5 699.5,341.167 701.5,342.5C 703.63,344.127 705.63,345.96 707.5,348C 708.549,348.492 709.549,348.326 710.5,347.5C 711.731,348.651 711.731,349.817 710.5,351C 711.5,351.333 712.5,351.667 713.5,352C 712.402,352.77 712.402,353.603 713.5,354.5C 713.573,356.027 712.906,357.027 711.5,357.5C 695.72,352.802 680.054,347.635 664.5,342C 659.107,339.274 654.274,335.774 650,331.5C 649.682,333.061 648.849,334.228 647.5,335C 630.243,341.141 612.909,346.975 595.5,352.5C 593.131,352.851 590.797,353.018 588.5,353C 589.891,351.35 591.391,350.85 593,351.5C 594.301,349.598 594.968,347.598 595,345.5C 593.261,347.741 591.094,349.408 588.5,350.5C 587.542,352.784 586.208,354.784 584.5,356.5C 432.329,409.28 279.996,461.78 127.5,514C 116.133,517.765 106.299,523.931 98,532.5C 89.6921,545.249 89.3588,558.249 97,571.5C 103.285,578.392 111.118,582.225 120.5,583C 154.93,583.28 188.597,583.78 221.5,584.5C 220.448,584.351 219.448,584.517 218.5,585C 218.324,586.66 218.991,588.326 220.5,590C 219.396,591.131 219.729,591.965 221.5,592.5C 222.833,592.167 224.167,591.833 225.5,591.5C 226.192,592.025 226.692,592.692 227,593.5C 227.914,592.346 228.747,592.513 229.5,594C 226.833,594.667 226.833,595.333 229.5,596C 229.167,596.333 228.833,596.667 228.5,597C 230.111,597.29 231.444,598.123 232.5,599.5C 194.832,599.667 157.165,599.5 119.5,599C 89.5921,594.39 75.4255,576.89 77,546.5C 78.008,537.833 81.1747,530.166 86.5,523.5C 91.7708,526.155 97.1041,526.155 102.5,523.5C 108.819,516.681 115.319,510.014 122,503.5C 122.791,502.255 123.291,500.922 123.5,499.5C 282.04,444.764 440.707,390.431 599.5,336.5C 601.144,336.286 602.644,336.62 604,337.5C 606.071,336.897 607.238,335.564 607.5,333.5C 619.07,329.187 630.736,325.02 642.5,321C 642.957,320.586 643.291,320.086 643.5,319.5C 641.007,313.415 640.007,307.082 640.5,300.5C 642.882,298.785 644.882,296.785 646.5,294.5C 648.17,294.249 649.67,293.582 651,292.5C 651.692,293.025 652.192,293.692 652.5,294.5C 651.391,296.214 652.058,296.881 654.5,296.5 Z"/></g>
<g><path style="opacity:1" fill="#373737" d="M 696.5,337.5 C 699.785,337.928 702.785,338.928 705.5,340.5C 703.62,340.229 702.287,340.896 701.5,342.5C 699.5,341.167 697.833,339.5 696.5,337.5 Z"/></g>
<g><path style="opacity:1" fill="#0d0d0d" d="M 705.5,340.5 C 864.866,392.733 1023.53,446.733 1181.5,502.5C 1180.5,502.414 1179.67,502.748 1179,503.5C 1177.82,501.346 1176.65,501.68 1175.5,504.5C 1176.13,505.417 1176.46,506.417 1176.5,507.5C 1174.85,505.854 1173.19,504.188 1171.5,502.5C 1170.68,501.614 1169.68,501.281 1168.5,501.5C 1164.97,499.63 1160.97,498.63 1156.5,498.5C 1153.16,500.861 1149.82,503.194 1146.5,505.5C 1004.09,457.363 861.755,409.029 719.5,360.5C 719.649,359.448 719.483,358.448 719,357.5C 718.667,357.833 718.333,358.167 718,358.5C 716.629,356.959 715.129,355.625 713.5,354.5C 712.402,353.603 712.402,352.77 713.5,352C 712.5,351.667 711.5,351.333 710.5,351C 711.731,349.817 711.731,348.651 710.5,347.5C 709.549,348.326 708.549,348.492 707.5,348C 705.63,345.96 703.63,344.127 701.5,342.5C 702.287,340.896 703.62,340.229 705.5,340.5 Z"/></g>
<g><path style="opacity:1" fill="#2e2e2e" d="M 595.5,352.5 C 592.061,354.204 588.395,355.538 584.5,356.5C 586.208,354.784 587.542,352.784 588.5,350.5C 591.094,349.408 593.261,347.741 595,345.5C 594.968,347.598 594.301,349.598 593,351.5C 591.391,350.85 589.891,351.35 588.5,353C 590.797,353.018 593.131,352.851 595.5,352.5 Z"/></g>
<g><path style="opacity:1" fill="#0f0f0f" d="M 645.5,350.5 C 658.037,351.196 662.537,357.529 659,369.5C 652.935,376.448 646.269,377.115 639,371.5C 634.039,362.065 636.206,355.065 645.5,350.5 Z"/></g>
<g><path style="opacity:1" fill="#393939" d="M 713.5,354.5 C 715.129,355.625 716.629,356.959 718,358.5C 718.333,358.167 718.667,357.833 719,357.5C 719.483,358.448 719.649,359.448 719.5,360.5C 716.646,359.795 713.979,358.795 711.5,357.5C 712.906,357.027 713.573,356.027 713.5,354.5 Z"/></g>
<g><path style="opacity:1" fill="#0d0d0d" d="M 1168.5,501.5 C 1171.46,504.793 1174.46,508.127 1177.5,511.5C 1178.43,512.689 1178.76,514.022 1178.5,515.5C 1177.5,515.5 1176.5,515.5 1175.5,515.5C 1167.29,513.39 1159.29,510.723 1151.5,507.5C 1152,503.988 1154,501.655 1157.5,500.5C 1161.12,501.346 1164.78,501.68 1168.5,501.5 Z"/></g>
<g><path style="opacity:1" fill="#090909" d="M 1181.5,502.5 C 1210.19,512.181 1223.02,532.181 1220,562.5C 1212.7,587.605 1195.87,599.939 1169.5,599.5C 1137.33,599.832 1105.33,599.498 1073.5,598.5C 1076.13,595.369 1078.96,592.369 1082,589.5C 1082.62,588.551 1082.45,587.718 1081.5,587C 1082.38,586.292 1083.05,585.458 1083.5,584.5C 1115.52,584.905 1147.52,584.405 1179.5,583C 1199.94,577.63 1208.44,564.463 1205,543.5C 1200.37,531.377 1192.21,522.71 1180.5,517.5C 1180.31,515.358 1180.14,513.025 1180,510.5C 1178.64,509.635 1177.47,508.635 1176.5,507.5C 1176.46,506.417 1176.13,505.417 1175.5,504.5C 1176.65,501.68 1177.82,501.346 1179,503.5C 1179.67,502.748 1180.5,502.414 1181.5,502.5 Z"/></g>
<g><path style="opacity:1" fill="#303030" d="M 1168.5,501.5 C 1164.78,501.68 1161.12,501.346 1157.5,500.5C 1154,501.655 1152,503.988 1151.5,507.5C 1149.6,507.204 1147.93,506.537 1146.5,505.5C 1149.82,503.194 1153.16,500.861 1156.5,498.5C 1160.97,498.63 1164.97,499.63 1168.5,501.5 Z"/></g>
<g><path style="opacity:1" fill="#393939" d="M 1168.5,501.5 C 1169.68,501.281 1170.68,501.614 1171.5,502.5C 1173.19,504.188 1174.85,505.854 1176.5,507.5C 1177.47,508.635 1178.64,509.635 1180,510.5C 1180.14,513.025 1180.31,515.358 1180.5,517.5C 1178.6,517.204 1176.93,516.537 1175.5,515.5C 1176.5,515.5 1177.5,515.5 1178.5,515.5C 1178.76,514.022 1178.43,512.689 1177.5,511.5C 1174.46,508.127 1171.46,504.793 1168.5,501.5 Z"/></g>
<g><path style="opacity:1" fill="#131313" d="M 103.5,508.5 C 104.284,516.223 100.617,520.057 92.5,520C 91.7476,519.329 91.4142,518.496 91.5,517.5C 94.9289,513.738 98.9289,510.738 103.5,508.5 Z"/></g>
<g><path style="opacity:1" fill="#3d3d3d" d="M 123.5,499.5 C 123.291,500.922 122.791,502.255 122,503.5C 115.319,510.014 108.819,516.681 102.5,523.5C 97.1041,526.155 91.7708,526.155 86.5,523.5C 87.7007,521.091 89.3674,519.091 91.5,517.5C 91.4142,518.496 91.7476,519.329 92.5,520C 100.617,520.057 104.284,516.223 103.5,508.5C 109.624,504.441 116.29,501.441 123.5,499.5 Z"/></g>
<g><path style="opacity:1" fill="#191919" d="M 593.5,584.5 C 714.833,584.5 836.167,584.5 957.5,584.5C 955.107,585.21 952.607,585.877 950,586.5C 872.503,585.189 794.669,585.189 716.5,586.5C 675.678,585.85 634.678,585.183 593.5,584.5 Z"/></g>
<g><path style="opacity:1" fill="#030303" d="M 359.5,584.5 C 434.332,585.333 509.332,585.833 584.5,586C 583.939,587.566 584.606,588.899 586.5,590C 587.449,590.617 588.282,590.451 589,589.5C 589.317,591.301 589.984,591.634 591,590.5C 593.149,593.446 594.982,593.613 596.5,591C 595.551,590.383 594.718,590.549 594,591.5C 592.5,589.333 590.667,587.5 588.5,586C 589.737,585.768 590.737,585.268 591.5,584.5C 592.167,584.5 592.833,584.5 593.5,584.5C 634.678,585.183 675.678,585.85 716.5,586.5C 717.364,587.688 718.364,588.855 719.5,590C 718.181,591.628 716.848,591.461 715.5,589.5C 714.268,590.145 712.935,590.311 711.5,590C 708.833,592 708.833,594 711.5,596C 710.29,597.039 709.29,598.206 708.5,599.5C 586.528,599.496 464.862,599.496 343.5,599.5C 306.573,599.878 269.573,599.878 232.5,599.5C 231.444,598.123 230.111,597.29 228.5,597C 228.833,596.667 229.167,596.333 229.5,596C 226.833,595.333 226.833,594.667 229.5,594C 228.747,592.513 227.914,592.346 227,593.5C 226.692,592.692 226.192,592.025 225.5,591.5C 224.167,591.833 222.833,592.167 221.5,592.5C 219.729,591.965 219.396,591.131 220.5,590C 218.991,588.326 218.324,586.66 218.5,585C 219.448,584.517 220.448,584.351 221.5,584.5C 267.421,584.399 313.421,584.399 359.5,584.5 Z"/></g>
<g><path style="opacity:1" fill="#1b1b1b" d="M 359.5,584.5 C 436.833,584.5 514.167,584.5 591.5,584.5C 590.737,585.268 589.737,585.768 588.5,586C 590.667,587.5 592.5,589.333 594,591.5C 594.718,590.549 595.551,590.383 596.5,591C 594.982,593.613 593.149,593.446 591,590.5C 589.984,591.634 589.317,591.301 589,589.5C 588.282,590.451 587.449,590.617 586.5,590C 584.606,588.899 583.939,587.566 584.5,586C 509.332,585.833 434.332,585.333 359.5,584.5 Z"/></g>
<g><path style="opacity:1" fill="#010101" d="M 957.5,584.5 C 999.5,584.5 1041.5,584.5 1083.5,584.5C 1083.05,585.458 1082.38,586.292 1081.5,587C 1082.45,587.718 1082.62,588.551 1082,589.5C 1078.96,592.369 1076.13,595.369 1073.5,598.5C 1072.83,598.5 1072.5,598.833 1072.5,599.5C 1072.17,599.5 1071.83,599.5 1071.5,599.5C 997.402,598.638 923.402,598.638 849.5,599.5C 802.5,599.5 755.5,599.5 708.5,599.5C 709.29,598.206 710.29,597.039 711.5,596C 708.833,594 708.833,592 711.5,590C 712.935,590.311 714.268,590.145 715.5,589.5C 716.848,591.461 718.181,591.628 719.5,590C 718.364,588.855 717.364,587.688 716.5,586.5C 794.669,585.189 872.503,585.189 950,586.5C 952.607,585.877 955.107,585.21 957.5,584.5 Z"/></g>
<g><path style="opacity:1" fill="#757575" d="M 708.5,599.5 C 755.5,599.5 802.5,599.5 849.5,599.5C 849.5,599.833 849.5,600.167 849.5,600.5C 680.666,600.833 511.999,600.5 343.5,599.5C 464.862,599.496 586.528,599.496 708.5,599.5 Z"/></g>
<g><path style="opacity:1" fill="#898989" d="M 1071.5,599.5 C 997.669,600.499 923.669,600.833 849.5,600.5C 849.5,600.167 849.5,599.833 849.5,599.5C 923.402,598.638 997.402,598.638 1071.5,599.5 Z"/></g>
<g><path style="opacity:1" fill="#999999" d="M 1073.5,598.5 C 1105.33,599.498 1137.33,599.832 1169.5,599.5C 1137.17,600.833 1104.83,600.833 1072.5,599.5C 1072.5,598.833 1072.83,598.5 1073.5,598.5 Z"/></g>
</svg>
