<?xml version="1.0" encoding="UTF-8"?>
<!DOCTYPE svg PUBLIC "-//W3C//DTD SVG 1.1//EN" "http://www.w3.org/Graphics/SVG/1.1/DTD/svg11.dtd">
<svg xmlns="http://www.w3.org/2000/svg" version="1.1" width="5000px" height="3000px" style="shape-rendering:geometricPrecision; text-rendering:geometricPrecision; image-rendering:optimizeQuality; fill-rule:evenodd; clip-rule:evenodd" xmlns:xlink="http://www.w3.org/1999/xlink">
<g><path style="opacity:1" fill="#201b17" d="M 2096.5,777.5 C 2123.43,775.824 2149.76,778.991 2175.5,787C 2187.24,790.803 2198.91,794.803 2210.5,799C 2246.94,814.553 2283.61,829.553 2320.5,844C 2377.68,865.637 2436.85,877.137 2498,878.5C 2515.85,877.264 2533.35,874.097 2550.5,869C 2610.92,849.293 2671.25,829.293 2731.5,809C 2775.56,794.735 2820.56,784.735 2866.5,779C 2892.33,776.282 2917.99,777.282 2943.5,782C 2985.52,791.022 3014.35,815.522 3030,855.5C 3035.59,876.848 3042.25,897.848 3050,918.5C 3060.81,942.131 3074.14,964.131 3090,984.5C 3110.04,1008.21 3129.71,1032.21 3149,1056.5C 3168.44,1083.05 3183.44,1112.05 3194,1143.5C 3201.61,1165.32 3208.61,1187.32 3215,1209.5C 3230.47,1265.7 3245.47,1322.04 3260,1378.5C 3274.29,1433.2 3292.45,1486.53 3314.5,1538.5C 3322.84,1539.56 3331.17,1539.39 3339.5,1538C 3376.66,1531.88 3413.33,1523.54 3449.5,1513C 3502.74,1497.36 3556.08,1482.02 3609.5,1467C 3662.61,1451.56 3716.61,1440.56 3771.5,1434C 3798.94,1430.57 3825.94,1432.57 3852.5,1440C 3880.63,1450.58 3894.29,1470.91 3893.5,1501C 3893.11,1517.26 3890.28,1533.1 3885,1548.5C 3875.06,1577.72 3862.39,1605.72 3847,1632.5C 3690.64,1901.19 3472.48,2103.02 3192.5,2238C 3006.89,2326.99 2811.23,2376.99 2605.5,2388C 2455.85,2392.42 2308.85,2374.75 2164.5,2335C 1903.39,2261.63 1668.39,2140.29 1459.5,1971C 1395.84,1919.01 1337,1861.84 1283,1799.5C 1228.87,1735.31 1185.87,1663.98 1154,1585.5C 1122.52,1506.62 1149.02,1463.45 1233.5,1456C 1276.17,1454.48 1318.17,1459.14 1359.5,1470C 1414.71,1484.18 1469.04,1501.18 1522.5,1521C 1591.43,1546.98 1660.26,1573.14 1729,1599.5C 1736.83,1584.7 1743.49,1569.36 1749,1553.5C 1764.1,1507.08 1775.44,1459.75 1783,1411.5C 1792.04,1354.22 1800.71,1296.89 1809,1239.5C 1818.09,1175.49 1831.75,1112.49 1850,1050.5C 1866.28,996.274 1890.28,945.941 1922,899.5C 1952.27,857.885 1989.44,824.052 2033.5,798C 2053.48,787.618 2074.48,780.784 2096.5,777.5 Z M 2895.5,864.5 C 2878.37,884.059 2864.2,905.726 2853,929.5C 2838.55,964.937 2834.21,1001.6 2840,1039.5C 2845.07,1070.73 2853.41,1101.06 2865,1130.5C 2871.14,1145.91 2877.47,1161.25 2884,1176.5C 2912.92,1237.35 2939.92,1299.01 2965,1361.5C 2987.9,1421.17 3002.07,1482.83 3007.5,1546.5C 3007.8,1549.06 3007.47,1551.39 3006.5,1553.5C 2999.55,1512.02 2988.38,1471.69 2973,1432.5C 2953.13,1383.09 2930.8,1334.75 2906,1287.5C 2873.86,1229.34 2842.53,1170.67 2812,1111.5C 2802.28,1091.68 2794.95,1071.01 2790,1049.5C 2787.53,1023.85 2791.53,999.179 2802,975.5C 2822.86,929.809 2854.03,892.809 2895.5,864.5 Z M 2645.5,904.5 C 2619.49,926.682 2592.15,947.182 2563.5,966C 2542.92,979.455 2520.59,988.789 2496.5,994C 2469.81,997.103 2446.48,989.77 2426.5,972C 2413.05,959.868 2401.39,946.368 2391.5,931.5C 2415.94,941.148 2440.6,950.314 2465.5,959C 2482.86,965.037 2500.53,966.37 2518.5,963C 2526.03,961.268 2533.36,958.935 2540.5,956C 2575.52,938.822 2610.52,921.655 2645.5,904.5 Z M 2193.5,935.5 C 2219.39,984.235 2227.56,1035.9 2218,1090.5C 2213.84,1106.82 2206.51,1121.49 2196,1134.5C 2188,1143.83 2180,1153.17 2172,1162.5C 2143.11,1191.4 2113.61,1219.56 2083.5,1247C 2045.78,1282.36 2012.94,1321.53 1985,1364.5C 1981.41,1370.68 1978.08,1377.01 1975,1383.5C 1977.37,1370.4 1981.37,1357.73 1987,1345.5C 2006.05,1306.5 2029.05,1270.16 2056,1236.5C 2073.25,1215.24 2091.25,1194.58 2110,1174.5C 2170.06,1106.5 2197.89,1026.83 2193.5,935.5 Z M 3267.5,1590.5 C 3273.68,1623.21 3280.18,1655.88 3287,1688.5C 3287.91,1711.09 3281.58,1731.43 3268,1749.5C 3251.55,1769.95 3232.05,1786.79 3209.5,1800C 3161.85,1827.22 3111.52,1848.22 3058.5,1863C 2947.41,1893.79 2834.41,1914.13 2719.5,1924C 2540.03,1940.51 2360.69,1939.17 2181.5,1920C 2099.28,1911.02 2018.28,1895.69 1938.5,1874C 1898.36,1862.73 1859.69,1847.73 1822.5,1829C 1804.11,1818.94 1787.11,1806.94 1771.5,1793C 1762.82,1784.48 1755.98,1774.64 1751,1763.5C 1748.78,1758.02 1747.28,1752.35 1746.5,1746.5C 1751.77,1709.8 1757.27,1673.13 1763,1636.5C 1766.33,1651.83 1773.33,1665.16 1784,1676.5C 1809.1,1700.32 1837.94,1718.48 1870.5,1731C 1932.03,1754.55 1995.36,1771.55 2060.5,1782C 2175.39,1800.87 2291.06,1811.2 2407.5,1813C 2557.23,1816.61 2706.23,1807.94 2854.5,1787C 2940.31,1775.3 3023.97,1754.96 3105.5,1726C 3142.33,1712.42 3176.66,1694.42 3208.5,1672C 3228.92,1656.58 3245.42,1637.74 3258,1615.5C 3261.41,1608.11 3263.91,1600.44 3265.5,1592.5C 3266.17,1591.83 3266.83,1591.17 3267.5,1590.5 Z"/></g>
<g><path style="opacity:1" fill="#8c8783" d="M 3007.5,1546.5 C 3008.47,1548.95 3008.81,1551.61 3008.5,1554.5C 3007.66,1554.84 3007.33,1555.51 3007.5,1556.5C 3006.6,1555.79 3006.26,1554.79 3006.5,1553.5C 3007.47,1551.39 3007.8,1549.06 3007.5,1546.5 Z"/></g>
<g><path style="opacity:1" fill="#87827e" d="M 3267.5,1590.5 C 3266.83,1591.17 3266.17,1591.83 3265.5,1592.5C 3265.31,1590.9 3265.81,1589.56 3267,1588.5C 3267.46,1589.09 3267.63,1589.76 3267.5,1590.5 Z"/></g>
</svg>
