<?xml version="1.0" encoding="UTF-8"?>
<!DOCTYPE svg PUBLIC "-//W3C//DTD SVG 1.1//EN" "http://www.w3.org/Graphics/SVG/1.1/DTD/svg11.dtd">
<svg xmlns="http://www.w3.org/2000/svg" version="1.1" width="250px" height="250px" style="shape-rendering:geometricPrecision; text-rendering:geometricPrecision; image-rendering:optimizeQuality; fill-rule:evenodd; clip-rule:evenodd" xmlns:xlink="http://www.w3.org/1999/xlink">
<g><path style="opacity:1" fill="#0b0b0b" d="M 95.5,22.5 C 114.836,22.3334 134.17,22.5 153.5,23C 166.02,26.0007 174.52,33.5007 179,45.5C 180.591,58.777 180.924,72.1104 180,85.5C 176.535,87.9626 173.369,90.7959 170.5,94C 169.833,94.6667 169.167,94.6667 168.5,94C 169.47,83.1302 169.803,72.1302 169.5,61C 168.419,47.2667 161.419,38.2667 148.5,34C 132.5,33.3333 116.5,33.3333 100.5,34C 88.1001,37.941 81.2667,46.441 80,59.5C 79.2374,71.0188 79.4041,82.1855 80.5,93C 80,93.5 79.5,94 79,94.5C 75.965,91.1298 72.6317,88.1298 69,85.5C 68.3333,73.1667 68.3333,60.8333 69,48.5C 73.0956,34.9035 81.9289,26.2368 95.5,22.5 Z"/></g>
<g><path style="opacity:1" fill="#030303" d="M 102.5,39.5 C 117.17,39.3334 131.837,39.5001 146.5,40C 154.575,41.7778 159.742,46.6111 162,54.5C 162.667,70.1667 162.667,85.8333 162,101.5C 149.35,112.649 136.85,123.982 124.5,135.5C 112.15,123.982 99.6495,112.649 87,101.5C 86.3333,85.8333 86.3333,70.1667 87,54.5C 89.5032,46.679 94.6699,41.679 102.5,39.5 Z"/></g>
<g><path style="opacity:1" fill="#070707" d="M 183.5,90.5 C 197.118,96.6188 206.951,106.619 213,120.5C 214.932,125.462 216.765,130.462 218.5,135.5C 201.176,136.666 183.843,136.833 166.5,136C 168.956,133.592 170.789,130.759 172,127.5C 172.333,118.5 172.667,109.5 173,100.5C 176.396,96.9349 179.896,93.6015 183.5,90.5 Z"/></g>
<g><path style="opacity:1" fill="#080808" d="M 62.5,90.5 C 67.9181,92.3942 72.4181,95.7276 76,100.5C 76.3333,109.5 76.6667,118.5 77,127.5C 78.2106,130.759 80.0439,133.592 82.5,136C 65.1571,136.833 47.8237,136.666 30.5,135.5C 34.123,120.744 41.4563,108.244 52.5,98C 56.0804,95.7226 59.4137,93.2226 62.5,90.5 Z"/></g>
<g><path style="opacity:1" fill="#0d0d0d" d="M 82.5,106.5 C 93.3312,116.496 104.331,126.33 115.5,136C 90.36,141.686 79.36,131.853 82.5,106.5 Z"/></g>
<g><path style="opacity:1" fill="#0d0d0d" d="M 165.5,106.5 C 169.765,131.723 159.098,141.556 133.5,136C 144.063,125.933 154.729,116.099 165.5,106.5 Z"/></g>
<g><path style="opacity:1" fill="#050505" d="M 27.5,143.5 C 38.5202,143.168 49.5202,143.501 60.5,144.5C 55.2961,158.404 49.9627,172.237 44.5,186C 33.8385,186.5 23.1719,186.667 12.5,186.5C 17.299,172.103 22.299,157.77 27.5,143.5 Z"/></g>
<g><path style="opacity:1" fill="#040404" d="M 68.5,143.5 C 86.1667,143.5 103.833,143.5 121.5,143.5C 121.5,157.833 121.5,172.167 121.5,186.5C 103.833,186.5 86.1667,186.5 68.5,186.5C 68.5,172.167 68.5,157.833 68.5,143.5 Z"/></g>
<g><path style="opacity:1" fill="#040404" d="M 127.5,143.5 C 145.167,143.5 162.833,143.5 180.5,143.5C 180.5,157.833 180.5,172.167 180.5,186.5C 162.833,186.5 145.167,186.5 127.5,186.5C 127.5,172.167 127.5,157.833 127.5,143.5 Z"/></g>
<g><path style="opacity:1" fill="#050505" d="M 188.5,143.5 C 199.52,143.168 210.52,143.501 221.5,144.5C 226.697,158.09 231.697,171.757 236.5,185.5C 225.849,186.666 215.182,186.832 204.5,186C 198.746,171.992 193.413,157.825 188.5,143.5 Z"/></g>
<g><path style="opacity:1" fill="#070707" d="M 9.5,193.5 C 20.1667,193.5 30.8333,193.5 41.5,193.5C 40.3453,201.14 37.0119,207.64 31.5,213C 18.7507,217.64 11.0841,213.307 8.5,200C 8.65272,197.784 8.98605,195.617 9.5,193.5 Z"/></g>
<g><path style="opacity:1" fill="#060606" d="M 68.5,193.5 C 86.1667,193.5 103.833,193.5 121.5,193.5C 121.5,204.5 121.5,215.5 121.5,226.5C 109.495,226.667 97.4954,226.5 85.5,226C 77.9745,224.161 72.8078,219.661 70,212.5C 68.6304,206.258 68.1304,199.925 68.5,193.5 Z"/></g>
<g><path style="opacity:1" fill="#060606" d="M 127.5,193.5 C 145.167,193.5 162.833,193.5 180.5,193.5C 181.881,202.937 180.047,211.604 175,219.5C 171.703,222.567 167.869,224.733 163.5,226C 151.505,226.5 139.505,226.667 127.5,226.5C 127.5,215.5 127.5,204.5 127.5,193.5 Z"/></g>
<g><path style="opacity:1" fill="#080808" d="M 207.5,193.5 C 218.187,193.168 228.854,193.501 239.5,194.5C 242.086,206.259 237.42,213.259 225.5,215.5C 220.243,215.121 216.076,212.788 213,208.5C 210.59,203.686 208.756,198.686 207.5,193.5 Z"/></g>
</svg>
