<?xml version="1.0" encoding="UTF-8"?>
<!DOCTYPE svg PUBLIC "-//W3C//DTD SVG 1.1//EN" "http://www.w3.org/Graphics/SVG/1.1/DTD/svg11.dtd">
<svg xmlns="http://www.w3.org/2000/svg" version="1.1" width="416px" height="416px" style="shape-rendering:geometricPrecision; text-rendering:geometricPrecision; image-rendering:optimizeQuality; fill-rule:evenodd; clip-rule:evenodd" xmlns:xlink="http://www.w3.org/1999/xlink">
<g><path style="opacity:1" fill="#1f292d" d="M 241.5,173.5 C 238.633,173.369 236.967,174.703 236.5,177.5C 234.742,177.123 233.075,176.456 231.5,175.5C 223.544,179.679 218.044,177.679 215,169.5C 211.502,167.446 207.835,165.779 204,164.5C 201.421,166.347 198.588,166.847 195.5,166C 192.41,164.155 189.743,161.822 187.5,159C 178.294,155.365 169.294,155.699 160.5,160C 151.916,165.913 143.916,172.58 136.5,180C 133.309,182.426 129.975,184.593 126.5,186.5C 126.5,184.833 126.5,183.167 126.5,181.5C 130.5,180.833 130.5,180.167 126.5,179.5C 128.151,178.03 129.985,176.697 132,175.5C 131.595,171.879 131.595,168.213 132,164.5C 137.631,154.066 144.131,144.233 151.5,135C 153.778,134.014 156.111,133.18 158.5,132.5C 169.812,137.239 180.645,142.906 191,149.5C 195.633,145.675 200.467,145.509 205.5,149C 208.347,151.571 209.013,154.571 207.5,158C 210.412,159.373 213.246,160.873 216,162.5C 222.171,156.018 228.171,156.351 234,163.5C 234.186,165.9 234.686,168.234 235.5,170.5C 237.604,171.519 239.604,172.519 241.5,173.5 Z M 155.5,139.5 C 157.857,139.337 160.19,139.503 162.5,140C 168.002,143.585 173.669,146.919 179.5,150C 169.983,148.925 161.316,151.259 153.5,157C 148.646,161.355 143.646,165.522 138.5,169.5C 137.628,167.534 137.795,165.534 139,163.5C 144.263,155.297 149.763,147.297 155.5,139.5 Z M 196.5,152.5 C 203.977,153.796 204.477,156.462 198,160.5C 196.115,160.138 195.281,158.971 195.5,157C 195.773,155.467 196.106,153.967 196.5,152.5 Z M 223.5,163.5 C 228.679,164.479 229.679,166.979 226.5,171C 221.917,171.934 220.417,170.1 222,165.5C 222.717,164.956 223.217,164.289 223.5,163.5 Z"/></g>
<g><path style="opacity:1" fill="#1e282c" d="M 311.5,204.5 C 309.777,206.218 307.777,207.551 305.5,208.5C 297.983,205.269 290.483,201.936 283,198.5C 274.683,202.173 269.183,199.673 266.5,191C 263.378,189.355 260.212,187.855 257,186.5C 248.562,191.538 243.062,189.205 240.5,179.5C 239.14,178.82 237.807,178.153 236.5,177.5C 236.967,174.703 238.633,173.369 241.5,173.5C 247.184,168.177 253.017,168.177 259,173.5C 260.092,176.044 260.759,178.711 261,181.5C 263.316,182.496 265.65,183.496 268,184.5C 274.183,178.996 280.183,179.329 286,185.5C 286.254,188.195 286.421,190.695 286.5,193C 294.816,196.935 303.149,200.769 311.5,204.5 Z M 248.5,175.5 C 255.671,176.513 256.338,179.179 250.5,183.5C 247.214,181.595 246.547,178.928 248.5,175.5 Z M 274.5,186.5 C 281.629,187.438 282.296,190.105 276.5,194.5C 273.338,192.519 272.671,189.852 274.5,186.5 Z"/></g>
<g><path style="opacity:1" fill="#202a2e" d="M 45.5,161.5 C 45.4033,164.55 46.4033,167.55 48.5,170.5C 45.0101,178.816 41.8434,187.149 39,195.5C 41.8701,193.487 45.0368,192.154 48.5,191.5C 58.4622,193.934 68.1288,196.934 77.5,200.5C 76.8888,202.775 75.5554,204.441 73.5,205.5C 66.8201,203.44 60.1534,201.274 53.5,199C 48.4744,197.506 44.3077,198.673 41,202.5C 36.7968,209.634 35.4635,217.3 37,225.5C 37.7719,230.191 38.6052,234.858 39.5,239.5C 55.6754,239.17 71.6754,239.504 87.5,240.5C 79.4931,240.334 71.4931,240.5 63.5,241C 78.5,241.333 93.5,241.667 108.5,242C 111.936,243.776 115.603,244.776 119.5,245C 112.987,245.172 106.653,245.672 100.5,246.5C 80.5039,245.976 60.5039,245.643 40.5,245.5C 40.2962,248.518 39.9629,251.518 39.5,254.5C 38.7784,254.082 38.2784,253.416 38,252.5C 37.6667,252.833 37.3333,253.167 37,253.5C 35.8777,251.58 35.0444,249.58 34.5,247.5C 32.0775,235.962 30.4108,224.295 29.5,212.5C 29.9178,208.157 30.4178,203.824 31,199.5C 35.5425,186.704 40.3758,174.037 45.5,161.5 Z"/></g>
<g><path style="opacity:1" fill="#1d282c" d="M 126.5,179.5 C 130.5,180.167 130.5,180.833 126.5,181.5C 126.5,183.167 126.5,184.833 126.5,186.5C 121.312,189.755 115.645,191.921 109.5,193C 105.642,203.096 98.3089,207.929 87.5,207.5C 82.722,207.477 78.0553,206.81 73.5,205.5C 75.5554,204.441 76.8888,202.775 77.5,200.5C 84.37,202.312 91.0367,201.812 97.5,199C 99.019,197.649 100.352,196.149 101.5,194.5C 90.6101,193.447 80.6101,189.947 71.5,184C 64.553,177.61 60.053,169.777 58,160.5C 55.7683,156.675 53.7683,156.675 52,160.5C 51.2987,164.109 50.1321,167.442 48.5,170.5C 46.4033,167.55 45.4033,164.55 45.5,161.5C 46.6179,152.776 51.2846,149.942 59.5,153C 60.6667,154.167 61.8333,155.333 63,156.5C 67.9395,176.82 80.9395,187.153 102,187.5C 110.972,187.12 119.139,184.453 126.5,179.5 Z"/></g>
<g><path style="opacity:1" fill="#1e282c" d="M 279.5,209.5 C 277.805,211.344 275.805,212.677 273.5,213.5C 240.664,202.722 208.164,191.055 176,178.5C 162.21,192.988 145.71,203.321 126.5,209.5C 127.26,211.36 128.26,213.027 129.5,214.5C 127.956,214.297 126.622,213.63 125.5,212.5C 124.637,214.771 124.637,217.105 125.5,219.5C 122.857,215.565 120.19,211.565 117.5,207.5C 117.833,206.833 118.167,206.167 118.5,205.5C 139.619,199.278 157.952,188.444 173.5,173C 174.333,172.833 175.167,172.667 176,172.5C 210.547,184.958 245.047,197.291 279.5,209.5 Z"/></g>
<g><path style="opacity:1" fill="#2d3336" d="M 187.5,192.5 C 190.166,192.066 191.333,193.066 191,195.5C 188.342,196.694 187.176,195.694 187.5,192.5 Z"/></g>
<g><path style="opacity:1" fill="#1c2529" d="M 179.5,201.5 C 182.861,202.203 183.194,203.537 180.5,205.5C 178.358,204.563 178.024,203.23 179.5,201.5 Z"/></g>
<g><path style="opacity:1" fill="#1f2427" d="M 224.5,206.5 C 228.61,208.746 228.277,210.079 223.5,210.5C 223.433,209.041 223.766,207.708 224.5,206.5 Z"/></g>
<g><path style="opacity:1" fill="#282f32" d="M 170.5,210.5 C 172.912,210.694 173.912,212.027 173.5,214.5C 170.046,214.733 169.046,213.4 170.5,210.5 Z"/></g>
<g><path style="opacity:1" fill="#1e282c" d="M 129.5,214.5 C 134.254,222.679 137.921,231.346 140.5,240.5C 148.459,241.86 156.459,242.86 164.5,243.5C 163.048,244.302 161.382,244.802 159.5,245C 159.833,245.333 160.167,245.667 160.5,246C 153.497,246.497 153.163,247.163 159.5,248C 158.906,248.464 158.239,248.631 157.5,248.5C 138.507,247.654 119.507,246.987 100.5,246.5C 106.653,245.672 112.987,245.172 119.5,245C 115.603,244.776 111.936,243.776 108.5,242C 93.5,241.667 78.5,241.333 63.5,241C 71.4931,240.5 79.4931,240.334 87.5,240.5C 102.852,240.287 118.186,240.62 133.5,241.5C 131.825,233.808 129.158,226.475 125.5,219.5C 124.637,217.105 124.637,214.771 125.5,212.5C 126.622,213.63 127.956,214.297 129.5,214.5 Z"/></g>
<g><path style="opacity:1" fill="#2d3335" d="M 214.5,216.5 C 217.166,216.066 218.333,217.066 218,219.5C 215.342,220.694 214.176,219.694 214.5,216.5 Z"/></g>
<g><path style="opacity:1" fill="#262f32" d="M 259.5,219.5 C 260.995,219.415 261.995,220.081 262.5,221.5C 261.68,223.111 260.346,223.778 258.5,223.5C 258.433,222.041 258.766,220.708 259.5,219.5 Z"/></g>
<g><path style="opacity:1" fill="#22272a" d="M 162.5,219.5 C 164.898,220.882 165.065,222.549 163,224.5C 162.167,223.667 161.333,222.833 160.5,222C 161.381,221.292 162.047,220.458 162.5,219.5 Z"/></g>
<g><path style="opacity:1" fill="#1e282c" d="M 311.5,204.5 C 315.041,205.958 318.708,207.124 322.5,208C 337.293,209.425 351.626,212.758 365.5,218C 368.239,219.026 370.572,220.526 372.5,222.5C 370.213,222.276 368.047,221.609 366,220.5C 364.941,220.63 364.108,221.13 363.5,222C 366.364,223.036 368.364,224.869 369.5,227.5C 354.518,219.587 338.518,215.421 321.5,215C 327.216,224.14 331.383,233.973 334,244.5C 346.354,241.87 358.52,238.536 370.5,234.5C 370.179,236.048 369.179,236.715 367.5,236.5C 367.281,237.675 367.614,238.675 368.5,239.5C 368.489,238.559 368.989,237.892 370,237.5C 371.722,237.611 371.888,238.111 370.5,239C 371.448,239.483 372.448,239.649 373.5,239.5C 353.925,246.952 333.591,251.618 312.5,253.5C 311.391,252.71 310.058,252.21 308.5,252C 310.751,249.987 310.084,248.82 306.5,248.5C 307.263,247.732 308.263,247.232 309.5,247C 306.799,239.066 303.799,231.233 300.5,223.5C 291.659,219.775 282.659,216.441 273.5,213.5C 275.805,212.677 277.805,211.344 279.5,209.5C 292.362,214.068 305.362,217.901 318.5,221C 316.542,218.252 314.709,215.418 313,212.5C 310.486,210.996 307.986,209.662 305.5,208.5C 307.777,207.551 309.777,206.218 311.5,204.5 Z M 308.5,225.5 C 313.439,226.868 318.272,228.535 323,230.5C 324.81,235.429 326.31,240.429 327.5,245.5C 323.265,246.424 319.099,246.424 315,245.5C 313.126,238.711 310.959,232.045 308.5,225.5 Z"/></g>
<g><path style="opacity:1" fill="#1d262a" d="M 206.5,225.5 C 209.861,226.203 210.194,227.537 207.5,229.5C 205.358,228.563 205.024,227.23 206.5,225.5 Z"/></g>
<g><path style="opacity:1" fill="#2e3436" d="M 152.5,229.5 C 155.166,229.066 156.333,230.066 156,232.5C 153.342,233.694 152.176,232.694 152.5,229.5 Z"/></g>
<g><path style="opacity:1" fill="#2d3438" d="M 250.5,228.5 C 252.912,228.694 253.912,230.027 253.5,232.5C 252.167,232.5 250.833,232.5 249.5,232.5C 249.433,231.041 249.766,229.708 250.5,228.5 Z"/></g>
<g><path style="opacity:1" fill="#282f32" d="M 197.5,234.5 C 199.912,234.694 200.912,236.027 200.5,238.5C 197.046,238.733 196.046,237.4 197.5,234.5 Z"/></g>
<g><path style="opacity:1" fill="#2e3235" d="M 241.5,238.5 C 242.5,238.5 243.5,238.5 244.5,238.5C 244.498,242.541 243.165,243.208 240.5,240.5C 240.863,239.817 241.196,239.15 241.5,238.5 Z"/></g>
<g><path style="opacity:1" fill="#252f33" d="M 164.5,243.5 C 211.677,249.326 259.011,250.993 306.5,248.5C 310.084,248.82 310.751,249.987 308.5,252C 310.058,252.21 311.391,252.71 312.5,253.5C 260.525,257.819 208.858,256.152 157.5,248.5C 158.239,248.631 158.906,248.464 159.5,248C 153.163,247.163 153.497,246.497 160.5,246C 160.167,245.667 159.833,245.333 159.5,245C 161.382,244.802 163.048,244.302 164.5,243.5 Z"/></g>
<g><path style="opacity:1" fill="#1d272b" d="M 372.5,222.5 C 378.615,227.355 382.782,233.688 385,241.5C 386.426,248.978 384.259,255.144 378.5,260C 361.971,269.121 344.304,274.954 325.5,277.5C 316.878,278.939 308.211,279.939 299.5,280.5C 277.004,279.668 254.337,279.168 231.5,279C 235.358,278.921 239.024,278.254 242.5,277C 224.995,276.832 207.662,276.332 190.5,275.5C 222.835,275.667 255.168,275.5 287.5,275C 308.193,274.372 328.527,271.372 348.5,266C 357.171,263.497 365.505,260.164 373.5,256C 377.384,253.781 379.051,250.447 378.5,246C 378.435,243.775 378.102,241.608 377.5,239.5C 376.3,238.708 374.967,238.708 373.5,239.5C 372.448,239.649 371.448,239.483 370.5,239C 371.888,238.111 371.722,237.611 370,237.5C 368.989,237.892 368.489,238.559 368.5,239.5C 367.614,238.675 367.281,237.675 367.5,236.5C 369.179,236.715 370.179,236.048 370.5,234.5C 374.91,232.655 374.577,230.322 369.5,227.5C 368.364,224.869 366.364,223.036 363.5,222C 364.108,221.13 364.941,220.63 366,220.5C 368.047,221.609 370.213,222.276 372.5,222.5 Z"/></g>
<g><path style="opacity:1" fill="#212b2f" d="M 34.5,247.5 C 35.0444,249.58 35.8777,251.58 37,253.5C 37.3333,253.167 37.6667,252.833 38,252.5C 38.2784,253.416 38.7784,254.082 39.5,254.5C 38.0204,259.748 37.5204,265.081 38,270.5C 39.6374,272.81 41.804,274.31 44.5,275C 93.1655,275.5 141.832,275.667 190.5,275.5C 207.662,276.332 224.995,276.832 242.5,277C 239.024,278.254 235.358,278.921 231.5,279C 254.337,279.168 277.004,279.668 299.5,280.5C 231.012,281.221 162.512,281.887 94,282.5C 77.1631,282.122 60.3298,281.622 43.5,281C 33.3564,277.892 29.5231,271.059 32,260.5C 32.8741,256.035 33.7074,251.702 34.5,247.5 Z"/></g>
</svg>
