<svg xmlns="http://www.w3.org/2000/svg" width="195.326" height="84.325" viewBox="0 0 195.326 84.325">
  <g id="Group_12" data-name="Group 12" transform="translate(-226.067 -379.175)">
    <path id="Path_1" data-name="Path 1" d="M238.49,385.081a17.374,17.374,0,0,1,6.1,1.124,13.643,13.643,0,0,1,4.659,2.972,12.692,12.692,0,0,1,2.945,4.551,16.566,16.566,0,0,1,1.017,5.971v8.246a16.39,16.39,0,0,1-1.071,6.077,12.845,12.845,0,0,1-3.052,4.605,13.4,13.4,0,0,1-4.793,2.918,18.382,18.382,0,0,1-6.292,1.017H226.067v-.482h.482q1.552-.053,1.553-1.713V387.276q0-1.659-1.553-1.713h-.482v-.482Zm-.482,37q4.765,0,6.961-3.373t2.2-10.763V399.7q0-7.389-2.2-10.763t-6.961-3.373h-2.356q-1.5.054-1.5,1.713v33.092q0,1.661,1.5,1.713Z" transform="translate(0 -4.085)" fill="#01260a"/>
    <path id="Path_2" data-name="Path 2" d="M337.827,412.177q.856,0,2.517.134a10.566,10.566,0,0,1,3.293.83,7.392,7.392,0,0,1,2.838,2.169,6.388,6.388,0,0,1,1.2,4.15h-5.087a9.117,9.117,0,0,0-.429-2.892,7.112,7.112,0,0,0-1.1-2.142,4.813,4.813,0,0,0-1.526-1.312,3.63,3.63,0,0,0-1.713-.455,3.9,3.9,0,0,0-3.079,1.74,8.066,8.066,0,0,0-1.365,5.06v19.652q0,1.66,1.553,1.713h.161v.482h-8.407v-.482h.161q1.5-.053,1.5-1.713V418.656a18.666,18.666,0,0,0-.187-2.945,5.794,5.794,0,0,0-.536-1.767,1.951,1.951,0,0,0-.776-.857,2.015,2.015,0,0,0-.911-.214v-.482a13.488,13.488,0,0,1,2.892.294,6.158,6.158,0,0,1,2.356,1.044,6.723,6.723,0,0,1,1.794-.884,14.709,14.709,0,0,1,1.848-.455,12.252,12.252,0,0,1,1.713-.187q.8-.026,1.285-.027" transform="translate(-69.083 -22.828)" fill="#01260a"/>
    <path id="Path_3" data-name="Path 3" d="M412.77,425.271q-1.5,0-1.5,1.66v2.249a11.939,11.939,0,0,0,.669,4.23,8.625,8.625,0,0,0,1.794,2.945,7.122,7.122,0,0,0,2.544,1.74,7.854,7.854,0,0,0,2.918.562,8.393,8.393,0,0,0,3.186-.642,8.655,8.655,0,0,0,2.811-1.847A9.389,9.389,0,0,0,427.2,433.2a9.9,9.9,0,0,0,.776-4.016h.482a12.589,12.589,0,0,1-.99,5.167,11.313,11.313,0,0,1-2.6,3.722,10.717,10.717,0,0,1-3.641,2.249,11.838,11.838,0,0,1-4.123.75,11.561,11.561,0,0,1-4.043-.723,9.906,9.906,0,0,1-3.48-2.2,10.922,10.922,0,0,1-2.463-3.722,13.561,13.561,0,0,1-.937-5.248v-8.728a10.2,10.2,0,0,1,.8-4.364,6.113,6.113,0,0,1,2.3-2.624,9.715,9.715,0,0,1,3.561-1.285,29.578,29.578,0,0,1,9.05,0,9.47,9.47,0,0,1,3.534,1.285,6.176,6.176,0,0,1,2.276,2.624,10.191,10.191,0,0,1,.8,4.364v4.819Zm-1.5-2.2q0,1.661,1.5,1.66h9.21q1.5,0,1.5-1.66v-2.624q0-4.283-1.58-6.185a6.335,6.335,0,0,0-9.05,0q-1.58,1.9-1.58,6.185Z" transform="translate(-124.59 -22.588)" fill="#01260a"/>
    <path id="Path_4" data-name="Path 4" d="M496.93,417.453a4.469,4.469,0,0,0,1.1,2.891,16.574,16.574,0,0,0,2.731,2.6q1.633,1.259,3.561,2.49a40.715,40.715,0,0,1,3.561,2.544,15.028,15.028,0,0,1,2.731,2.811,5.418,5.418,0,0,1,1.1,3.266,6.274,6.274,0,0,1-.8,3.239,6.932,6.932,0,0,1-2.168,2.276,10.19,10.19,0,0,1-3.106,1.366,14.27,14.27,0,0,1-3.615.455,15.647,15.647,0,0,1-4.043-.536,12.035,12.035,0,0,1-3.614-1.606,8.744,8.744,0,0,1-2.6-2.651,6.653,6.653,0,0,1-.99-3.614h.536a5.437,5.437,0,0,0,.8,2.945,7.448,7.448,0,0,0,2.061,2.168,9.43,9.43,0,0,0,2.838,1.339,11.254,11.254,0,0,0,3.132.455,9.572,9.572,0,0,0,2.383-.294,5.626,5.626,0,0,0,2.008-.937,4.624,4.624,0,0,0,1.874-3.855,3.694,3.694,0,0,0-1.071-2.516,16.027,16.027,0,0,0-2.678-2.3q-1.606-1.125-3.507-2.276a28.547,28.547,0,0,1-3.507-2.49,13.793,13.793,0,0,1-2.678-2.945,6.322,6.322,0,0,1-1.071-3.588,6.229,6.229,0,0,1,2.222-4.926q2.221-1.928,7.255-1.928a15.17,15.17,0,0,1,2.249.161q1.071.16,2.035.321t1.74.321a6.641,6.641,0,0,0,1.312.161q1.017,0,1.017-.749l.536-.054V423.4h-.482a11.262,11.262,0,0,0-.642-3.534,14.547,14.547,0,0,0-1.794-3.614,11.515,11.515,0,0,0-2.677-2.811,5.443,5.443,0,0,0-3.293-1.125,4.407,4.407,0,0,0-2.088.455,3.733,3.733,0,0,0-1.366,1.2,5.39,5.39,0,0,0-.75,1.66,7.1,7.1,0,0,0-.241,1.821" transform="translate(-183.102 -22.588)" fill="#01260a"/>
    <path id="Path_5" data-name="Path 5" d="M575.787,417.453a4.469,4.469,0,0,0,1.1,2.891,16.566,16.566,0,0,0,2.73,2.6q1.633,1.259,3.561,2.49a40.786,40.786,0,0,1,3.561,2.544,15.033,15.033,0,0,1,2.731,2.811,5.416,5.416,0,0,1,1.1,3.266,6.277,6.277,0,0,1-.8,3.239,6.939,6.939,0,0,1-2.169,2.276,10.187,10.187,0,0,1-3.105,1.366,14.27,14.27,0,0,1-3.615.455,15.645,15.645,0,0,1-4.042-.536,12.029,12.029,0,0,1-3.615-1.606,8.747,8.747,0,0,1-2.6-2.651,6.655,6.655,0,0,1-.99-3.614h.536a5.438,5.438,0,0,0,.8,2.945,7.451,7.451,0,0,0,2.062,2.168,9.43,9.43,0,0,0,2.838,1.339,11.252,11.252,0,0,0,3.132.455,9.572,9.572,0,0,0,2.383-.294,5.615,5.615,0,0,0,2.008-.937,4.622,4.622,0,0,0,1.874-3.855,3.692,3.692,0,0,0-1.071-2.516,16.031,16.031,0,0,0-2.677-2.3q-1.607-1.125-3.507-2.276a28.584,28.584,0,0,1-3.508-2.49,13.8,13.8,0,0,1-2.677-2.945,6.319,6.319,0,0,1-1.071-3.588,6.231,6.231,0,0,1,2.222-4.926q2.222-1.928,7.256-1.928a15.156,15.156,0,0,1,2.248.161q1.07.16,2.035.321t1.74.321a6.64,6.64,0,0,0,1.312.161q1.017,0,1.017-.749l.536-.054V423.4h-.482a11.264,11.264,0,0,0-.643-3.534,14.575,14.575,0,0,0-1.794-3.614,11.528,11.528,0,0,0-2.677-2.811,5.443,5.443,0,0,0-3.293-1.125,4.411,4.411,0,0,0-2.089.455,3.731,3.731,0,0,0-1.365,1.2,5.388,5.388,0,0,0-.75,1.66,7.115,7.115,0,0,0-.241,1.821" transform="translate(-237.649 -22.588)" fill="#01260a"/>
    <path id="Path_6" data-name="Path 6" d="M657.761,418v.482h-8.407V418h.161q1.5-.053,1.5-1.713V391.705a1.361,1.361,0,0,0-1.5-1.66h-.161v-.482H656.1v26.72q0,1.661,1.5,1.713Zm-4.177-31.378-3.748-3.748,3.748-3.695,3.694,3.695Z" transform="translate(-292.796 0)" fill="#01260a"/>
    <path id="Path_7" data-name="Path 7" d="M731.8,431.133a11.379,11.379,0,0,1,4.792.883,6.69,6.69,0,0,1,2.785,2.169,4.226,4.226,0,0,1,.749,2.838,4.567,4.567,0,0,1-1.392,2.838,9.781,9.781,0,0,1-3.668,2.169,17.574,17.574,0,0,1-6,.883,5.576,5.576,0,0,1-3-.83,12.853,12.853,0,0,1-2.516-2.061,30.859,30.859,0,0,1-2.276-2.677q-1.1-1.446-2.222-2.677a13.663,13.663,0,0,0-2.329-2.062,4.653,4.653,0,0,0-2.7-.83,9.335,9.335,0,0,1-5.355-1.419q-2.088-1.418-2.088-4.846V410.946q0-4.283-1.606-6.212a5.534,5.534,0,0,0-4.5-1.928,5.592,5.592,0,0,0-4.551,1.928q-1.607,1.928-1.606,6.212v18.313q0,1.661,1.553,1.713h.16v.482H687.62v-.482h.16q1.5-.053,1.5-1.713V408.8a18.643,18.643,0,0,0-.187-2.945,5.791,5.791,0,0,0-.535-1.767,1.949,1.949,0,0,0-.777-.857,2.014,2.014,0,0,0-.91-.214v-.482a12.505,12.505,0,0,1,3.079.348,6.817,6.817,0,0,1,2.383,1.1,9.387,9.387,0,0,1,3.534-1.312,30.119,30.119,0,0,1,9.13,0,9.466,9.466,0,0,1,3.534,1.285,6.181,6.181,0,0,1,2.276,2.624,10.2,10.2,0,0,1,.8,4.364v14.565a18.475,18.475,0,0,0,.188,2.945,5.379,5.379,0,0,0,.535,1.74,1.954,1.954,0,0,0,.776.83,2.006,2.006,0,0,0,.911.214,5.342,5.342,0,0,1,2.918.83,13.274,13.274,0,0,1,2.49,2.062,31.142,31.142,0,0,1,2.276,2.677q1.1,1.446,2.222,2.677a12.753,12.753,0,0,0,2.383,2.062,4.9,4.9,0,0,0,2.758.83,7.048,7.048,0,0,0,3.507-.776,5.463,5.463,0,0,0,2.062-1.954,4.966,4.966,0,0,0,.7-2.57,5.114,5.114,0,0,0-.669-2.571,5.34,5.34,0,0,0-1.981-1.954,6.263,6.263,0,0,0-3.24-.777,28.985,28.985,0,0,1-6.238-.562,10.7,10.7,0,0,1-3.775-1.473,2.925,2.925,0,0,1-1.393-2.115,3.8,3.8,0,0,1,.857-2.544l.215-.268a6.5,6.5,0,0,1-2.811-2.651,9.592,9.592,0,0,1-.991-4.739v-6.8a10.2,10.2,0,0,1,.8-4.364,6.17,6.17,0,0,1,2.276-2.624,9.456,9.456,0,0,1,3.534-1.285,27.268,27.268,0,0,1,4.524-.348,26.567,26.567,0,0,1,4.659.375,9.217,9.217,0,0,1,3.587,1.393l.589-.8a4.087,4.087,0,0,0,.75-1.606,2,2,0,0,0-.214-1.446,2.663,2.663,0,0,0-1.312-1.044,6.587,6.587,0,0,0-2.543-.4v-.536h8.032l-4.712,6.319a6.308,6.308,0,0,1,1.74,2.517,10.526,10.526,0,0,1,.616,3.855v6.8a10.194,10.194,0,0,1-.8,4.364,6.117,6.117,0,0,1-2.3,2.624,9.673,9.673,0,0,1-3.534,1.285,27.1,27.1,0,0,1-4.552.348,33.228,33.228,0,0,1-3.668-.187,10.935,10.935,0,0,1-3.079-.777l-.161.268a3.173,3.173,0,0,0-.776,2.062,2.383,2.383,0,0,0,1.312,1.874,11.7,11.7,0,0,0,4.1,1.339,44.876,44.876,0,0,0,7.631.509m-11.459-13.708a13.281,13.281,0,0,0,.75,4.712l11.138-14.993a5.948,5.948,0,0,0-2.062-3.507,6.061,6.061,0,0,0-3.722-1.1,5.551,5.551,0,0,0-4.524,1.9q-1.58,1.9-1.58,6.185Zm12.262-6.8c0-.392-.019-.8-.054-1.232s-.09-.857-.161-1.285l-10.977,14.726a5.278,5.278,0,0,0,5.033,2.731,5.6,5.6,0,0,0,4.552-1.928q1.606-1.928,1.606-6.212Z" transform="translate(-318.747 -12.976)" fill="#01260a"/>
    <path id="Path_8" data-name="Path 8" d="M352.9,567.082v.482h-10.12v-.482h.482q1.552-.053,1.553-1.713a27.551,27.551,0,0,0-.723-4.953,18.051,18.051,0,0,0-1.419-3.936,8.995,8.995,0,0,0-1.9-2.6,3.345,3.345,0,0,0-2.275-.937h-5.141q-1.5,0-1.5,1.66v10.763q0,1.66,1.5,1.713h.536v.482h-10.12v-.482h.482q1.552-.053,1.553-1.713V532.276q0-1.659-1.553-1.713h-.482v-.482h11.941a34.639,34.639,0,0,1,5.141.4,17.957,17.957,0,0,1,4.926,1.445,10.276,10.276,0,0,1,3.695,2.811,6.956,6.956,0,0,1,1.446,4.551v4.444a7.456,7.456,0,0,1-.723,3.374,7.667,7.667,0,0,1-1.981,2.49,11.067,11.067,0,0,1-2.892,1.713,19.677,19.677,0,0,1-3.4,1.044h.053c-.179.036-.277.116-.294.241s.08.223.294.294a10.416,10.416,0,0,1,3.588,1.687,11.273,11.273,0,0,1,2.651,2.784,14.241,14.241,0,0,1,1.74,3.668,20.747,20.747,0,0,1,.857,4.337,2.519,2.519,0,0,0,.429,1.258,1.5,1.5,0,0,0,1.124.455ZM335.708,552.41a8.8,8.8,0,0,0,3.508-.589,9.038,9.038,0,0,0,2.891-1.82,8.536,8.536,0,0,0,1.981-2.812,9.112,9.112,0,0,0,.776-3.454v-4.444a9.026,9.026,0,0,0-.776-3.48,8.623,8.623,0,0,0-1.981-2.784,9.451,9.451,0,0,0-2.891-1.847,8.517,8.517,0,0,0-3.508-.616h-2.356q-1.5.054-1.5,1.713V550.75q0,1.66,1.5,1.66Z" transform="translate(-67.581 -104.385)" fill="#01260a"/>
    <path id="Path_9" data-name="Path 9" d="M452.378,556.135a27.3,27.3,0,0,1,4.525.348,9.468,9.468,0,0,1,3.534,1.285,6.178,6.178,0,0,1,2.276,2.624,10.192,10.192,0,0,1,.8,4.364v12.209a10.189,10.189,0,0,1-.8,4.364,6.174,6.174,0,0,1-2.276,2.624,9.43,9.43,0,0,1-3.534,1.285,29.578,29.578,0,0,1-9.05,0,9.671,9.671,0,0,1-3.561-1.285,6.11,6.11,0,0,1-2.3-2.624,10.189,10.189,0,0,1-.8-4.364V564.756a10.192,10.192,0,0,1,.8-4.364,6.113,6.113,0,0,1,2.3-2.624,9.71,9.71,0,0,1,3.561-1.285,27.292,27.292,0,0,1,4.525-.348m6.1,8.621q0-4.284-1.606-6.185a5.569,5.569,0,0,0-4.5-1.9,5.631,5.631,0,0,0-4.552,1.9q-1.606,1.9-1.606,6.185v12.209q0,4.284,1.606,6.211a5.593,5.593,0,0,0,4.552,1.928,5.532,5.532,0,0,0,4.5-1.928q1.606-1.928,1.606-6.211Z" transform="translate(-148.802 -122.407)" fill="#01260a"/>
    <path id="Path_10" data-name="Path 10" d="M553.814,556.135a27.309,27.309,0,0,1,4.525.348,9.473,9.473,0,0,1,3.534,1.285,6.178,6.178,0,0,1,2.276,2.624,10.19,10.19,0,0,1,.8,4.364v12.209a10.187,10.187,0,0,1-.8,4.364,6.175,6.175,0,0,1-2.276,2.624,9.435,9.435,0,0,1-3.534,1.285,29.578,29.578,0,0,1-9.05,0,9.669,9.669,0,0,1-3.561-1.285,6.11,6.11,0,0,1-2.3-2.624,10.191,10.191,0,0,1-.8-4.364V564.756a10.194,10.194,0,0,1,.8-4.364,6.114,6.114,0,0,1,2.3-2.624,9.709,9.709,0,0,1,3.561-1.285,27.285,27.285,0,0,1,4.524-.348m6.1,8.621q0-4.284-1.607-6.185a5.569,5.569,0,0,0-4.5-1.9,5.631,5.631,0,0,0-4.551,1.9q-1.606,1.9-1.606,6.185v12.209q0,4.284,1.606,6.211a5.593,5.593,0,0,0,4.551,1.928,5.532,5.532,0,0,0,4.5-1.928q1.607-1.928,1.607-6.211Z" transform="translate(-218.968 -122.407)" fill="#01260a"/>
    <path id="Path_11" data-name="Path 11" d="M672.8,580.363a18.542,18.542,0,0,0,.188,2.945,5.409,5.409,0,0,0,.536,1.74,1.951,1.951,0,0,0,.776.83,2.006,2.006,0,0,0,.91.214v.535a9.333,9.333,0,0,1-5.354-1.419q-2.089-1.419-2.088-4.846V565.8a14.409,14.409,0,0,0-.991-6.212,3.294,3.294,0,0,0-3.132-1.927,3.239,3.239,0,0,0-3.106,1.927,14.758,14.758,0,0,0-.964,6.212v18.313q0,1.66,1.5,1.713h.161v.482h-8.407v-.482h.161q1.5-.053,1.5-1.713V565.8a14.758,14.758,0,0,0-.964-6.212,3.24,3.24,0,0,0-3.106-1.927,3.293,3.293,0,0,0-3.133,1.927,14.4,14.4,0,0,0-.991,6.212v18.313q0,1.66,1.553,1.713h.16v.482H639.6v-.482h.16q1.5-.053,1.5-1.713V563.656a18.668,18.668,0,0,0-.187-2.945,5.8,5.8,0,0,0-.536-1.767,1.95,1.95,0,0,0-.777-.856,2.011,2.011,0,0,0-.91-.214v-.482a12.893,12.893,0,0,1,3,.321,6.489,6.489,0,0,1,2.356,1.071,7.817,7.817,0,0,1,2.918-1.258,15.881,15.881,0,0,1,6.854.053A6.858,6.858,0,0,1,657,559.1a7.246,7.246,0,0,1,3.079-1.526,15.881,15.881,0,0,1,6.854-.053,7.825,7.825,0,0,1,2.945,1.285A6.652,6.652,0,0,1,672,561.434a10.194,10.194,0,0,1,.8,4.364Z" transform="translate(-285.53 -123.128)" fill="#01260a"/>
  </g>
</svg>
