<?xml version="1.0" standalone="no"?>
<!DOCTYPE svg PUBLIC "-//W3C//DTD SVG 20010904//EN"
 "http://www.w3.org/TR/2001/REC-SVG-20010904/DTD/svg10.dtd">
<svg version="1.0" xmlns="http://www.w3.org/2000/svg"
 width="728.000000pt" height="412.000000pt" viewBox="0 0 728.000000 412.000000"
 preserveAspectRatio="xMidYMid meet">

<g transform="translate(0.000000,412.000000) scale(0.100000,-0.100000)"
fill="#000000" stroke="none">
<path d="M3153 4098 c-30 -35 -33 -41 -53 -144 -10 -52 -20 -97 -22 -98 -1 -1
-64 -8 -138 -14 -365 -32 -636 -96 -707 -168 l-33 -32 0 -182 0 -182 30 -28
c16 -15 52 -36 80 -46 42 -15 50 -22 50 -43 0 -26 5 -95 34 -536 9 -126 20
-297 26 -380 5 -82 14 -215 20 -295 12 -171 25 -372 40 -600 6 -91 15 -226 20
-300 5 -74 19 -283 31 -465 23 -370 29 -398 97 -446 74 -51 265 -102 482 -129
151 -19 1069 -8 1180 14 202 39 330 81 381 123 61 52 58 25 119 948 6 88 26
392 45 675 19 283 40 585 45 670 6 85 15 216 20 290 5 74 14 207 20 294 6 87
13 162 15 167 3 4 19 11 36 14 17 4 49 23 70 42 l39 35 0 178 c0 175 0 179
-25 208 -30 36 -94 64 -217 97 -99 26 -385 70 -531 81 -100 8 -101 8 -112 106
-9 71 -22 111 -46 142 l-20 26 -478 0 -478 0 -20 -22z m957 -27 c16 -16 31
-39 34 -52 9 -44 49 -274 50 -288 1 -11 -12 -14 -59 -12 -33 2 -62 4 -64 7 -2
2 -12 52 -22 111 -28 165 3 153 -404 153 -415 0 -380 16 -415 -197 l-12 -71
-59 -4 c-47 -2 -59 0 -58 12 0 8 13 82 28 165 24 130 31 153 55 177 l27 28
435 0 436 0 28 -29z m-126 -137 c9 -8 16 -26 16 -40 l0 -24 -350 0 c-192 0
-353 1 -357 3 -11 3 -4 49 9 64 8 10 87 13 339 13 284 0 330 -2 343 -16z m-3
-110 c36 -6 36 -6 45 -73 l9 -66 104 -3 104 -3 -7 43 c-4 24 -10 54 -13 67
l-6 23 74 -7 c387 -35 670 -97 728 -159 52 -56 -4 -107 -169 -155 -553 -162
-1867 -162 -2420 0 -165 48 -221 99 -169 155 58 62 355 127 733 160 l79 7 -7
-52 c-4 -28 -9 -58 -12 -66 -5 -13 9 -15 94 -15 112 0 103 -7 117 92 5 31 13
48 24 51 25 7 651 8 692 1z m-1539 -374 c453 -123 1435 -152 2083 -60 194 28
342 63 436 104 l80 34 -3 -121 -3 -122 -65 -33 c-107 -53 -322 -95 -660 -129
-253 -25 -1087 -25 -1340 0 -338 34 -553 76 -660 129 l-65 33 -3 122 -3 122
65 -29 c36 -17 98 -39 138 -50z m2442 -332 c-4 -39 -13 -67 -23 -75 -25 -18
-147 -51 -251 -67 -497 -80 -1497 -78 -1950 5 -108 19 -210 52 -235 75 -20 18
-25 33 -25 69 0 25 3 45 8 45 4 0 43 -9 88 -20 90 -21 318 -54 494 -71 183
-17 914 -23 1134 -9 303 19 538 49 691 89 39 10 71 19 73 20 2 0 0 -27 -4 -61z
m-2323 -152 c526 -122 1917 -107 2262 24 28 11 52 19 52 17 1 -1 -40 -621 -90
-1378 -99 -1478 -93 -1415 -152 -1457 -43 -30 -160 -69 -275 -91 -217 -42
-379 -55 -698 -55 -313 -1 -468 9 -666 43 -268 46 -365 91 -392 181 -6 19 -25
249 -42 510 -17 261 -57 875 -90 1365 -33 490 -60 891 -60 892 0 1 20 -7 43
-17 24 -11 73 -26 108 -34z"/>
<path d="M4542 2786 c-49 -26 -50 -32 -72 -442 -64 -1213 -100 -1940 -100
-2002 0 -94 22 -122 94 -124 42 0 53 4 72 25 23 27 28 62 39 272 49 970 97
1904 105 2034 5 90 5 173 0 185 -18 48 -92 76 -138 52z m94 -43 c19 -19 19
-18 -11 -578 -8 -148 -33 -630 -55 -1070 -33 -627 -45 -805 -56 -823 -19 -28
-73 -30 -98 -3 -17 18 -16 44 8 518 14 274 41 806 61 1183 38 753 38 754 55
775 17 20 75 19 96 -2z"/>
<path d="M2645 2764 c-30 -33 -30 -18 -10 -494 20 -491 42 -1023 60 -1490 20
-500 19 -496 56 -533 27 -26 35 -29 77 -24 35 4 52 12 71 33 l24 29 -7 175
c-7 176 -28 713 -46 1130 -5 124 -16 414 -25 645 -18 494 -19 500 -50 531 -36
36 -116 34 -150 -2z m128 -22 c17 -18 15 7 77 -1507 11 -269 25 -589 30 -710
11 -253 9 -265 -59 -265 -23 0 -44 7 -53 18 -20 21 -19 0 -98 1997 -5 138 -12
294 -16 347 -5 89 -4 98 15 117 26 26 82 28 104 3z"/>
<path d="M3093 2770 c-12 -5 -30 -21 -39 -35 -16 -25 -17 -57 -5 -503 6 -262
14 -538 16 -612 3 -74 12 -400 20 -725 8 -324 17 -610 20 -634 8 -66 35 -91
103 -91 46 0 58 4 83 29 18 19 29 40 29 58 0 15 -11 431 -25 923 -13 492 -27
1003 -30 1135 -9 374 -12 403 -45 437 -30 29 -80 37 -127 18z m115 -52 c8 -16
21 -365 42 -1133 37 -1398 37 -1341 15 -1366 -24 -26 -86 -26 -110 1 -16 18
-20 111 -51 1247 -38 1387 -42 1273 45 1273 39 0 50 -4 59 -22z"/>
<path d="M4078 2763 c-15 -9 -32 -29 -37 -43 -5 -14 -23 -560 -39 -1245 -31
-1302 -32 -1268 16 -1294 12 -6 41 -11 67 -11 55 0 91 29 99 81 4 27 50 1889
58 2362 2 103 1 109 -24 133 -33 34 -101 42 -140 17z m117 -43 c17 -18 17 -44
6 -487 -7 -257 -21 -809 -31 -1226 -21 -843 -17 -807 -85 -807 -22 0 -43 8
-55 20 -25 25 -26 -56 9 1345 20 805 31 1137 40 1153 16 30 89 31 116 2z"/>
<path d="M3559 2741 l-29 -29 0 -1246 0 -1246 29 -32 c27 -30 35 -33 86 -33
51 0 59 3 86 33 l29 32 0 1246 0 1246 -29 29 c-26 25 -37 29 -86 29 -49 0 -60
-4 -86 -29z m147 -26 l24 -24 -2 -1236 c-3 -1211 -3 -1237 -22 -1251 -21 -15
-93 -19 -112 -6 -34 22 -34 41 -34 1272 l0 1221 25 24 c33 34 87 34 121 0z"/>
</g>
</svg>
