<?xml version="1.0" encoding="UTF-8"?>
<!DOCTYPE svg PUBLIC "-//W3C//DTD SVG 1.1//EN" "http://www.w3.org/Graphics/SVG/1.1/DTD/svg11.dtd">
<svg xmlns="http://www.w3.org/2000/svg" version="1.1" width="820px" height="704px" style="shape-rendering:geometricPrecision; text-rendering:geometricPrecision; image-rendering:optimizeQuality; fill-rule:evenodd; clip-rule:evenodd" xmlns:xlink="http://www.w3.org/1999/xlink">
<g><path style="opacity:1" fill="#f5f5f5" d="M -0.5,-0.5 C 272.833,-0.5 546.167,-0.5 819.5,-0.5C 819.5,234.167 819.5,468.833 819.5,703.5C 546.167,703.5 272.833,703.5 -0.5,703.5C -0.5,468.833 -0.5,234.167 -0.5,-0.5 Z"/></g>
<g><path style="opacity:1" fill="#9c9c9c" d="M 598.5,39.5 C 601.716,39.3455 604.383,40.3455 606.5,42.5C 603.603,41.871 600.936,40.871 598.5,39.5 Z"/></g>
<g><path style="opacity:1" fill="#060606" d="M 359.5,55.5 C 361.515,56.9238 363.848,57.5905 366.5,57.5C 395.398,62.9255 424.398,62.7588 453.5,57C 462.012,55.4186 469.845,52.2519 477,47.5C 477.735,45.1287 478.568,42.7954 479.5,40.5C 519.161,39.5001 558.828,39.1668 598.5,39.5C 600.936,40.871 603.603,41.871 606.5,42.5C 670.838,79.6687 735.171,116.835 799.5,154C 806.85,160.877 810.183,169.377 809.5,179.5C 808.129,181.936 807.129,184.603 806.5,187.5C 784.773,224.61 763.273,261.944 742,299.5C 733.743,311.375 722.577,315.542 708.5,312C 678.806,295.155 649.139,278.321 619.5,261.5C 619.44,260.957 619.107,260.624 618.5,260.5C 617.5,393.832 617.167,527.165 617.5,660.5C 615.734,673.768 608.401,682.268 595.5,686C 471.167,686.667 346.833,686.667 222.5,686C 210.059,682.393 202.725,674.227 200.5,661.5C 200.5,528.167 200.5,394.833 200.5,261.5C 199.209,261.263 198.209,261.596 197.5,262.5C 168.523,278.99 139.523,295.49 110.5,312C 96.2348,316.117 85.0681,311.95 77,299.5C 55.7272,261.944 34.2272,224.61 12.5,187.5C 11.871,184.603 10.871,181.936 9.5,179.5C 8.58847,168.727 12.2551,159.894 20.5,153C 84.5,116 148.5,79 212.5,42C 214.878,41.4888 217.212,40.8221 219.5,40C 259.504,39.1667 299.504,39.3334 339.5,40.5C 340.324,44.159 341.99,47.3256 344.5,50C 349.232,52.5984 354.232,54.4317 359.5,55.5 Z"/></g>
<g><path style="opacity:1" fill="#8e8e8e" d="M 359.5,55.5 C 362.152,55.4095 364.485,56.0762 366.5,57.5C 363.848,57.5905 361.515,56.9238 359.5,55.5 Z"/></g>
<g><path style="opacity:1" fill="#fdfdfd" d="M 354.5,71.5 C 356.515,72.9238 358.848,73.5905 361.5,73.5C 394.471,80.1832 427.471,80.0166 460.5,73C 468.949,70.7767 476.949,67.4433 484.5,63C 486.976,61.6912 488.976,59.8579 490.5,57.5C 526.162,56.3334 561.829,56.1668 597.5,57C 661.071,92.9011 724.404,129.234 787.5,166C 790.702,168.013 792.369,170.846 792.5,174.5C 791.858,178.79 790.358,182.79 788,186.5C 767.013,222.316 746.18,258.149 725.5,294C 719.324,297.48 713.324,297.147 707.5,293C 672.505,272.835 637.505,252.669 602.5,232.5C 602.44,231.957 602.107,231.624 601.5,231.5C 600.5,374.165 600.167,516.832 600.5,659.5C 599.839,664.33 597.172,667.497 592.5,669C 469.5,669.667 346.5,669.667 223.5,669C 220.979,667.442 219.312,665.275 218.5,662.5C 218.5,518.833 218.5,375.167 218.5,231.5C 217.209,231.263 216.209,231.596 215.5,232.5C 214.833,232.5 214.5,232.833 214.5,233.5C 178.53,253.485 142.863,273.985 107.5,295C 102.312,297.349 97.4784,296.849 93,293.5C 70.7472,255.33 48.7472,216.996 27,178.5C 26.3333,175.833 26.3333,173.167 27,170.5C 29.921,166.908 33.421,164.075 37.5,162C 98.1345,127.014 158.801,92.0138 219.5,57C 255.838,56.1668 292.171,56.3334 328.5,57.5C 335.708,64.7725 344.375,69.4392 354.5,71.5 Z"/></g>
<g><path style="opacity:1" fill="#636363" d="M 354.5,71.5 C 357.152,71.4095 359.485,72.0762 361.5,73.5C 358.848,73.5905 356.515,72.9238 354.5,71.5 Z"/></g>
<g><path style="opacity:1" fill="#a0a0a0" d="M 9.5,179.5 C 10.871,181.936 11.871,184.603 12.5,187.5C 10.3455,185.383 9.3455,182.716 9.5,179.5 Z"/></g>
<g><path style="opacity:1" fill="#a0a0a0" d="M 809.5,179.5 C 809.655,182.716 808.655,185.383 806.5,187.5C 807.129,184.603 808.129,181.936 809.5,179.5 Z"/></g>
<g><path style="opacity:1" fill="#e7e7e7" d="M 215.5,232.5 C 216.209,231.596 217.209,231.263 218.5,231.5C 218.5,375.167 218.5,518.833 218.5,662.5C 217.596,661.791 217.263,660.791 217.5,659.5C 218.165,516.829 217.498,374.496 215.5,232.5 Z"/></g>
<g><path style="opacity:1" fill="#5a5a5a" d="M 602.5,232.5 C 601.833,374.833 601.167,517.167 600.5,659.5C 600.167,516.832 600.5,374.165 601.5,231.5C 602.107,231.624 602.44,231.957 602.5,232.5 Z"/></g>
<g><path style="opacity:1" fill="#686868" d="M 214.5,233.5 C 214.5,232.833 214.833,232.5 215.5,232.5C 217.498,374.496 218.165,516.829 217.5,659.5C 217.166,517.33 216.166,375.33 214.5,233.5 Z"/></g>
<g><path style="opacity:1" fill="#b8b8b8" d="M 619.5,261.5 C 618.833,394.5 618.167,527.5 617.5,660.5C 617.167,527.165 617.5,393.832 618.5,260.5C 619.107,260.624 619.44,260.957 619.5,261.5 Z"/></g>
<g><path style="opacity:1" fill="#b2b2b2" d="M 197.5,262.5 C 198.209,261.596 199.209,261.263 200.5,261.5C 200.5,394.833 200.5,528.167 200.5,661.5C 200.166,528.33 199.166,395.33 197.5,262.5 Z"/></g>
</svg>
