<?xml version="1.0" encoding="UTF-8"?>
<!DOCTYPE svg PUBLIC "-//W3C//DTD SVG 1.1//EN" "http://www.w3.org/Graphics/SVG/1.1/DTD/svg11.dtd">
<svg xmlns="http://www.w3.org/2000/svg" version="1.1" width="820px" height="704px" style="shape-rendering:geometricPrecision; text-rendering:geometricPrecision; image-rendering:optimizeQuality; fill-rule:evenodd; clip-rule:evenodd" xmlns:xlink="http://www.w3.org/1999/xlink">
<g><path style="opacity:1" fill="#070707" d="M 386.5,60.5 C 393.443,61.9692 400.609,62.6358 408,62.5C 415.718,62.6107 423.218,61.9441 430.5,60.5C 443.857,59.2621 456.857,56.4287 469.5,52C 472.249,50.8773 474.749,49.3773 477,47.5C 477.735,45.1287 478.568,42.7954 479.5,40.5C 519.829,39.3334 560.163,39.1667 600.5,40C 604.719,41.1087 608.719,42.7754 612.5,45C 641.388,62.0605 670.388,78.8939 699.5,95.5C 699.821,97.0481 700.821,97.7148 702.5,97.5C 703.833,98.1667 705.167,98.8333 706.5,99.5C 706.821,101.048 707.821,101.715 709.5,101.5C 710.833,102.167 712.167,102.833 713.5,103.5C 713.821,105.048 714.821,105.715 716.5,105.5C 743.473,120.988 770.473,136.488 797.5,152C 810.418,163.149 812.918,176.316 805,191.5C 783.252,229.331 761.252,266.997 739,304.5C 730.138,313.444 719.638,315.944 707.5,312C 701.273,308.726 695.273,305.226 689.5,301.5C 689.027,300.094 688.027,299.427 686.5,299.5C 683.24,298.226 680.24,296.56 677.5,294.5C 677.027,293.094 676.027,292.427 674.5,292.5C 670.345,291.258 666.678,289.258 663.5,286.5C 663.027,285.094 662.027,284.427 660.5,284.5C 647.498,277.668 634.832,270.335 622.5,262.5C 621.01,260.72 619.01,260.054 616.5,260.5C 616.5,395.5 616.5,530.5 616.5,665.5C 614.094,676.407 607.427,683.241 596.5,686C 471.833,686.667 347.167,686.667 222.5,686C 217.712,685.109 213.712,682.942 210.5,679.5C 210.027,678.094 209.027,677.427 207.5,677.5C 204.442,674.052 202.442,670.052 201.5,665.5C 201.667,530.833 201.5,396.166 201,261.5C 200.023,260.226 199.189,260.226 198.5,261.5C 169.997,278.922 140.997,295.588 111.5,311.5C 105.536,312.307 99.5362,312.64 93.5,312.5C 86.3356,310.83 80.8356,306.83 77,300.5C 67.6722,283.688 58.1722,267.021 48.5,250.5C 48.7148,248.821 48.0481,247.821 46.5,247.5C 37.1667,231.167 27.8333,214.833 18.5,198.5C 18.7148,196.821 18.0481,195.821 16.5,195.5C 11.3945,189.087 9.06118,181.754 9.5,173.5C 11.0395,171.162 11.7062,168.495 11.5,165.5C 13.4338,160.052 16.7672,155.552 21.5,152C 48.0588,136.557 74.7255,121.39 101.5,106.5C 103.027,106.573 104.027,105.906 104.5,104.5C 137.996,84.9173 171.662,65.584 205.5,46.5C 207.027,46.573 208.027,45.9063 208.5,44.5C 211.397,42.2217 214.73,40.7217 218.5,40C 258.837,39.1667 299.171,39.3334 339.5,40.5C 340.432,42.7954 341.265,45.1287 342,47.5C 347.964,51.4906 354.464,54.324 361.5,56C 369.799,57.8268 378.132,59.3268 386.5,60.5 Z M 327.5,56.5 C 332.211,62.3691 338.211,66.5357 345.5,69C 373.567,77.7486 402.233,80.5819 431.5,77.5C 438.078,77.236 444.411,76.236 450.5,74.5C 466.262,73.4177 479.929,67.5844 491.5,57C 526.833,56.3333 562.167,56.3333 597.5,57C 599.407,58.122 601.407,58.9553 603.5,59.5C 603.973,60.9063 604.973,61.573 606.5,61.5C 633.499,77.6689 660.833,93.3356 688.5,108.5C 688.973,109.906 689.973,110.573 691.5,110.5C 692.514,111.674 693.847,112.34 695.5,112.5C 695.973,113.906 696.973,114.573 698.5,114.5C 703.502,118.003 708.835,121.003 714.5,123.5C 714.973,124.906 715.973,125.573 717.5,125.5C 739.833,139.002 762.499,152.002 785.5,164.5C 785.973,165.906 786.973,166.573 788.5,166.5C 789.167,167.5 789.833,168.5 790.5,169.5C 790.932,170.71 791.599,171.71 792.5,172.5C 792.797,176.911 791.631,180.911 789,184.5C 769,219.167 749,253.833 729,288.5C 726.11,294.861 721.277,297.361 714.5,296C 703.473,289.821 692.473,283.655 681.5,277.5C 680.71,276.599 679.71,275.932 678.5,275.5C 677.167,274.833 675.833,274.167 674.5,273.5C 673.71,272.599 672.71,271.932 671.5,271.5C 648.635,258.235 625.635,245.235 602.5,232.5C 602.44,231.957 602.107,231.624 601.5,231.5C 600.5,374.165 600.167,516.832 600.5,659.5C 599.839,664.33 597.172,667.497 592.5,669C 470.167,669.667 347.833,669.667 225.5,669C 220.828,667.497 218.161,664.33 217.5,659.5C 217.5,517.167 217.5,374.833 217.5,232.5C 216.209,232.263 215.209,232.596 214.5,233.5C 177.726,254.056 141.059,274.89 104.5,296C 97.723,297.361 92.8896,294.861 90,288.5C 70,253.833 50,219.167 30,184.5C 24.5445,176.728 25.7112,170.228 33.5,165C 95.7263,129.392 157.726,93.5591 219.5,57.5C 255.469,56.5193 291.469,56.186 327.5,56.5 Z"/></g>
<g><path style="opacity:1" fill="#515151" d="M 208.5,44.5 C 208.027,45.9063 207.027,46.573 205.5,46.5C 205.973,45.0937 206.973,44.427 208.5,44.5 Z"/></g>
<g><path style="opacity:1" fill="#404040" d="M 327.5,56.5 C 291.469,56.186 255.469,56.5193 219.5,57.5C 219.918,56.7784 220.584,56.2784 221.5,56C 257.002,55.169 292.336,55.3357 327.5,56.5 Z"/></g>
<g><path style="opacity:1" fill="#5e5e5e" d="M 603.5,59.5 C 605.027,59.427 606.027,60.0937 606.5,61.5C 604.973,61.573 603.973,60.9063 603.5,59.5 Z"/></g>
<g><path style="opacity:1" fill="#484848" d="M 386.5,60.5 C 401.169,61.7669 415.835,61.7669 430.5,60.5C 423.218,61.9441 415.718,62.6107 408,62.5C 400.609,62.6358 393.443,61.9692 386.5,60.5 Z"/></g>
<g><path style="opacity:1" fill="#444444" d="M 450.5,74.5 C 444.411,76.236 438.078,77.236 431.5,77.5C 437.589,75.764 443.922,74.764 450.5,74.5 Z"/></g>
<g><path style="opacity:1" fill="#4f4f4f" d="M 699.5,95.5 C 700.71,95.9321 701.71,96.5987 702.5,97.5C 700.821,97.7148 699.821,97.0481 699.5,95.5 Z"/></g>
<g><path style="opacity:1" fill="#545454" d="M 706.5,99.5 C 707.71,99.9321 708.71,100.599 709.5,101.5C 707.821,101.715 706.821,101.048 706.5,99.5 Z"/></g>
<g><path style="opacity:1" fill="#595959" d="M 713.5,103.5 C 714.71,103.932 715.71,104.599 716.5,105.5C 714.821,105.715 713.821,105.048 713.5,103.5 Z"/></g>
<g><path style="opacity:1" fill="#505050" d="M 104.5,104.5 C 104.027,105.906 103.027,106.573 101.5,106.5C 101.973,105.094 102.973,104.427 104.5,104.5 Z"/></g>
<g><path style="opacity:1" fill="#595959" d="M 688.5,108.5 C 690.027,108.427 691.027,109.094 691.5,110.5C 689.973,110.573 688.973,109.906 688.5,108.5 Z"/></g>
<g><path style="opacity:1" fill="#545454" d="M 695.5,112.5 C 697.027,112.427 698.027,113.094 698.5,114.5C 696.973,114.573 695.973,113.906 695.5,112.5 Z"/></g>
<g><path style="opacity:1" fill="#5c5c5c" d="M 714.5,123.5 C 716.027,123.427 717.027,124.094 717.5,125.5C 715.973,125.573 714.973,124.906 714.5,123.5 Z"/></g>
<g><path style="opacity:1" fill="#535353" d="M 785.5,164.5 C 787.027,164.427 788.027,165.094 788.5,166.5C 786.973,166.573 785.973,165.906 785.5,164.5 Z"/></g>
<g><path style="opacity:1" fill="#3a3a3a" d="M 11.5,165.5 C 11.7062,168.495 11.0395,171.162 9.5,173.5C 9.56513,170.572 10.2318,167.905 11.5,165.5 Z"/></g>
<g><path style="opacity:1" fill="#565656" d="M 790.5,169.5 C 792.048,169.821 792.715,170.821 792.5,172.5C 791.599,171.71 790.932,170.71 790.5,169.5 Z"/></g>
<g><path style="opacity:1" fill="#4f4f4f" d="M 16.5,195.5 C 18.0481,195.821 18.7148,196.821 18.5,198.5C 17.5987,197.71 16.9321,196.71 16.5,195.5 Z"/></g>
<g><path style="opacity:1" fill="#5a5a5a" d="M 602.5,232.5 C 601.833,374.833 601.167,517.167 600.5,659.5C 600.167,516.832 600.5,374.165 601.5,231.5C 602.107,231.624 602.44,231.957 602.5,232.5 Z"/></g>
<g><path style="opacity:1" fill="#686868" d="M 214.5,233.5 C 215.209,232.596 216.209,232.263 217.5,232.5C 217.5,374.833 217.5,517.167 217.5,659.5C 217.166,517.33 216.166,375.33 214.5,233.5 Z"/></g>
<g><path style="opacity:1" fill="#595959" d="M 46.5,247.5 C 48.0481,247.821 48.7148,248.821 48.5,250.5C 47.5987,249.71 46.9321,248.71 46.5,247.5 Z"/></g>
<g><path style="opacity:1" fill="#252525" d="M 622.5,262.5 C 620.883,261.962 619.216,261.629 617.5,261.5C 617.833,396.334 617.5,531.001 616.5,665.5C 616.5,530.5 616.5,395.5 616.5,260.5C 619.01,260.054 621.01,260.72 622.5,262.5 Z"/></g>
<g><path style="opacity:1" fill="#2a2a2a" d="M 198.5,261.5 C 199.189,260.226 200.023,260.226 201,261.5C 201.5,396.166 201.667,530.833 201.5,665.5C 200.667,531.334 200.167,397.001 200,262.5C 199.617,261.944 199.117,261.611 198.5,261.5 Z"/></g>
<g><path style="opacity:1" fill="#515151" d="M 671.5,271.5 C 672.71,271.932 673.71,272.599 674.5,273.5C 672.821,273.715 671.821,273.048 671.5,271.5 Z"/></g>
<g><path style="opacity:1" fill="#555555" d="M 678.5,275.5 C 679.71,275.932 680.71,276.599 681.5,277.5C 679.821,277.715 678.821,277.048 678.5,275.5 Z"/></g>
<g><path style="opacity:1" fill="#5b5b5b" d="M 660.5,284.5 C 662.027,284.427 663.027,285.094 663.5,286.5C 661.973,286.573 660.973,285.906 660.5,284.5 Z"/></g>
<g><path style="opacity:1" fill="#515151" d="M 674.5,292.5 C 676.027,292.427 677.027,293.094 677.5,294.5C 675.973,294.573 674.973,293.906 674.5,292.5 Z"/></g>
<g><path style="opacity:1" fill="#606060" d="M 686.5,299.5 C 688.027,299.427 689.027,300.094 689.5,301.5C 687.973,301.573 686.973,300.906 686.5,299.5 Z"/></g>
<g><path style="opacity:1" fill="#4c4c4c" d="M 111.5,311.5 C 108.305,313.03 104.805,313.696 101,313.5C 98.3097,313.497 95.8097,313.164 93.5,312.5C 99.5362,312.64 105.536,312.307 111.5,311.5 Z"/></g>
<g><path style="opacity:1" fill="#525252" d="M 207.5,677.5 C 209.027,677.427 210.027,678.094 210.5,679.5C 208.973,679.573 207.973,678.906 207.5,677.5 Z"/></g>
</svg>
